<svg width="8" height="8" viewBox="0 0 8 8" fill="none" xmlns="http://www.w3.org/2000/svg">
<ellipse cx="4" cy="4" rx="4" ry="4" fill="#252525"/>
<path d="M3.85247 4.35268V2.84821C3.85247 2.75149 3.84577 2.68824 3.83238 2.65848C3.82048 2.62723 3.79592 2.61161 3.75872 2.61161C3.73491 2.61161 3.6858 2.62277 3.6114 2.64509C3.53848 2.66741 3.48045 2.69048 3.43729 2.71429C3.42092 2.70536 3.40678 2.69271 3.39488 2.67634C3.38446 2.65997 3.37925 2.64435 3.37925 2.62946C3.37925 2.59524 3.38223 2.57738 3.38818 2.57589C3.53253 2.51488 3.69175 2.44568 3.86586 2.3683C4.03997 2.29092 4.17315 2.23214 4.26542 2.19196C4.35917 2.1503 4.40753 2.12946 4.4105 2.12946H4.41943C4.43134 2.12946 4.4425 2.13988 4.45292 2.16071C4.46333 2.18006 4.47003 2.19792 4.473 2.21429C4.44622 2.3006 4.43283 2.44048 4.43283 2.63393V4.35268C4.43283 4.57292 4.44473 4.7128 4.46854 4.77232C4.48342 4.8125 4.57866 4.83929 4.75425 4.85268C4.76467 4.86905 4.76914 4.89732 4.76765 4.9375C4.76765 4.97768 4.76318 5.00446 4.75425 5.01786C4.55187 4.99702 4.348 4.98661 4.14265 4.98661C3.93729 4.98661 3.73342 4.99702 3.53104 5.01786C3.52211 5.00446 3.5169 4.97768 3.51542 4.9375C3.51542 4.89732 3.52062 4.86905 3.53104 4.85268C3.70664 4.83929 3.80187 4.8125 3.81675 4.77232C3.84056 4.7128 3.85247 4.57292 3.85247 4.35268Z" fill="white"/>
</svg>
