<svg width="91" height="56" viewBox="0 0 91 56" fill="none" xmlns="http://www.w3.org/2000/svg">
<path d="M10.5177 24.0112L17.7075 42.5457C18.0022 43.2922 18.3362 43.7931 18.7094 44.0485C19.0826 44.2842 19.4264 44.4119 19.7407 44.4315V45.0209C19.3478 44.9816 18.8666 44.9619 18.2969 44.9619C17.7272 44.9423 17.1575 44.9325 16.5878 44.9325C15.8217 44.9325 15.1047 44.9423 14.4368 44.9619C13.7688 44.9619 13.2286 44.9816 12.8161 45.0209V44.4315C13.818 44.3923 14.4564 44.2253 14.7314 43.9306C15.0064 43.6163 14.9475 42.9582 14.5546 41.9564L9.07384 27.3115L9.5453 26.9284L4.41812 40.2473C4.10381 41.0331 3.91719 41.701 3.85826 42.251C3.79932 42.7814 3.84843 43.2038 4.00559 43.5181C4.18239 43.8324 4.46723 44.0583 4.86012 44.1958C5.27265 44.3333 5.78341 44.4119 6.39238 44.4315V45.0209C5.84234 44.9816 5.26283 44.9619 4.65385 44.9619C4.06452 44.9423 3.51448 44.9325 3.00373 44.9325C2.51262 44.9325 2.09026 44.9423 1.73666 44.9619C1.40271 44.9619 1.0884 44.9816 0.793734 45.0209V44.4315C1.18662 44.3333 1.58933 44.1074 2.00186 43.7538C2.4144 43.3806 2.78764 42.7519 3.12159 41.868L10.0462 24.0112C10.1248 24.0112 10.2034 24.0112 10.282 24.0112C10.3605 24.0112 10.4391 24.0112 10.5177 24.0112ZM14.1126 36.5345V37.1238H5.33158L5.62625 36.5345H14.1126ZM26.8682 21.9191V42.2805C26.8682 43.1055 27.0352 43.6654 27.3691 43.9601C27.7227 44.2547 28.3022 44.4021 29.1076 44.4021V45.0209C28.7737 45.0012 28.2629 44.9816 27.5754 44.9619C26.9075 44.9227 26.2297 44.903 25.5422 44.903C24.8743 44.903 24.1966 44.9227 23.509 44.9619C22.8214 44.9816 22.3107 45.0012 21.9767 45.0209V44.4021C22.7822 44.4021 23.3518 44.2547 23.6858 43.9601C24.0394 43.6654 24.2162 43.1055 24.2162 42.2805V25.4551C24.2162 24.5711 24.059 23.9228 23.7447 23.5103C23.4304 23.0781 22.8411 22.862 21.9767 22.862V22.2432C22.6054 22.3022 23.2143 22.3316 23.8037 22.3316C24.3734 22.3316 24.9136 22.3022 25.4243 22.2432C25.9547 22.1646 26.436 22.0566 26.8682 21.9191ZM37.0675 21.9191V42.2805C37.0675 43.1055 37.2345 43.6654 37.5685 43.9601C37.9221 44.2547 38.5016 44.4021 39.307 44.4021V45.0209C38.973 45.0012 38.4623 44.9816 37.7747 44.9619C37.1068 44.9227 36.4291 44.903 35.7415 44.903C35.0736 44.903 34.3959 44.9227 33.7083 44.9619C33.0208 44.9816 32.51 45.0012 32.1761 45.0209V44.4021C32.9815 44.4021 33.5512 44.2547 33.8851 43.9601C34.2387 43.6654 34.4155 43.1055 34.4155 42.2805V25.4551C34.4155 24.5711 34.2584 23.9228 33.9441 23.5103C33.6298 23.0781 33.0404 22.862 32.1761 22.862V22.2432C32.8047 22.3022 33.4137 22.3316 34.003 22.3316C34.5727 22.3316 35.1129 22.3022 35.6237 22.2432C36.1541 22.1646 36.6354 22.0566 37.0675 21.9191ZM55.9595 29.5215V41.8385C55.9595 42.7225 56.1167 43.3806 56.431 43.8127C56.7649 44.2253 57.3543 44.4315 58.199 44.4315V45.0503C57.59 44.9914 56.981 44.9619 56.372 44.9619C55.8024 44.9619 55.2523 44.9914 54.7219 45.0503C54.2112 45.1093 53.7397 45.2173 53.3075 45.3745V41.8974C52.8164 43.1743 52.119 44.0878 51.2154 44.6378C50.3314 45.1682 49.4179 45.4334 48.475 45.4334C47.7875 45.4334 47.1883 45.3352 46.6775 45.1387C46.1668 44.9423 45.7444 44.6673 45.4105 44.3137C45.0372 43.9208 44.7819 43.41 44.6444 42.7814C44.5068 42.1528 44.4381 41.3768 44.4381 40.4536V33.0574C44.4381 32.1735 44.2809 31.5252 43.9666 31.1127C43.6523 30.6805 43.063 30.4644 42.1986 30.4644V29.8456C42.8273 29.9045 43.4362 29.934 44.0256 29.934C44.5952 29.934 45.1355 29.9045 45.6462 29.8456C46.1766 29.767 46.6579 29.659 47.0901 29.5215V41.1018C47.0901 41.7108 47.1294 42.2707 47.2079 42.7814C47.2865 43.2922 47.483 43.7047 47.7973 44.019C48.1116 44.3333 48.6223 44.4905 49.3295 44.4905C50.0957 44.4905 50.7734 44.2547 51.3627 43.7833C51.9717 43.3118 52.4432 42.6734 52.7771 41.868C53.1307 41.0625 53.3075 40.1589 53.3075 39.157V33.0574C53.3075 32.1735 53.1504 31.5252 52.8361 31.1127C52.5217 30.6805 51.9324 30.4644 51.0681 30.4644V29.8456C51.6967 29.9045 52.3057 29.934 52.895 29.934C53.4647 29.934 54.0049 29.9045 54.5157 29.8456C55.0461 29.767 55.5273 29.659 55.9595 29.5215ZM70.6355 29.4331C71.1659 29.4331 71.6275 29.5411 72.0204 29.7572C72.4329 29.9733 72.7472 30.2581 72.9633 30.6117C73.1991 30.9457 73.3169 31.3287 73.3169 31.7609C73.3169 32.252 73.1598 32.6842 72.8455 33.0574C72.5508 33.4307 72.1481 33.6173 71.6373 33.6173C71.2248 33.6173 70.8614 33.4896 70.5471 33.2342C70.2328 32.9592 70.0756 32.5762 70.0756 32.0851C70.0756 31.7118 70.1738 31.3975 70.3703 31.1421C70.5864 30.8671 70.8221 30.651 71.0775 30.4939C70.94 30.2974 70.7337 30.1992 70.4587 30.1992C69.8497 30.1992 69.2898 30.3858 68.7791 30.7591C68.2683 31.1127 67.8362 31.5743 67.4826 32.144C67.129 32.7137 66.8539 33.3226 66.6575 33.9709C66.461 34.5995 66.3628 35.1889 66.3628 35.7389V41.9858C66.3628 42.9484 66.6378 43.5967 67.1879 43.9306C67.7576 44.2449 68.5237 44.4021 69.4863 44.4021V45.0209C69.0345 45.0012 68.396 44.9816 67.571 44.9619C66.7459 44.9227 65.8717 44.903 64.9484 44.903C64.2805 44.903 63.6126 44.9227 62.9447 44.9619C62.2964 44.9816 61.8053 45.0012 61.4714 45.0209V44.4021C62.2768 44.4021 62.8465 44.2547 63.1804 43.9601C63.534 43.6654 63.7108 43.1055 63.7108 42.2805V33.0574C63.7108 32.1735 63.5537 31.5252 63.2394 31.1127C62.9251 30.6805 62.3357 30.4644 61.4714 30.4644V29.8456C62.1 29.9045 62.709 29.934 63.2983 29.934C63.868 29.934 64.4082 29.9045 64.919 29.8456C65.4494 29.767 65.9306 29.659 66.3628 29.5215V33.2048C66.5789 32.6351 66.8834 32.0654 67.2763 31.4957C67.6888 30.9064 68.1799 30.4153 68.7496 30.0224C69.3193 29.6295 69.9479 29.4331 70.6355 29.4331ZM80.5455 45.2271C79.74 45.2271 79.0427 45.0798 78.4533 44.7851C77.864 44.4708 77.4122 44.0387 77.0979 43.4886C76.8032 42.9386 76.6559 42.3001 76.6559 41.5733C76.6559 40.7089 76.8523 40.0017 77.2452 39.4517C77.6577 38.9017 78.1783 38.4597 78.8069 38.1257C79.4355 37.7917 80.0936 37.5167 80.7812 37.3006C81.4884 37.0649 82.1563 36.8488 82.7849 36.6524C83.4135 36.4363 83.9243 36.1907 84.3172 35.9157C84.7297 35.6407 84.936 35.2773 84.936 34.8254V32.9985C84.936 32.1735 84.8083 31.5448 84.5529 31.1127C84.3172 30.6805 83.993 30.3956 83.5805 30.2581C83.168 30.101 82.7063 30.0224 82.1956 30.0224C81.7045 30.0224 81.1741 30.0911 80.6044 30.2287C80.0543 30.3662 79.6123 30.651 79.2784 31.0832C79.6516 31.1618 79.9758 31.3582 80.2508 31.6725C80.5258 31.9868 80.6633 32.3895 80.6633 32.8806C80.6633 33.3718 80.5062 33.7646 80.1919 34.0593C79.8775 34.3343 79.4748 34.4718 78.9837 34.4718C78.414 34.4718 77.9917 34.295 77.7167 33.9414C77.4613 33.5682 77.3336 33.1557 77.3336 32.7039C77.3336 32.1931 77.4613 31.7806 77.7167 31.4663C77.972 31.1519 78.2962 30.8573 78.6891 30.5823C79.1409 30.2679 79.7204 30.0027 80.4276 29.7867C81.1544 29.5509 81.9697 29.4331 82.8733 29.4331C83.6787 29.4331 84.3663 29.5313 84.936 29.7277C85.5057 29.9045 85.9771 30.1697 86.3504 30.5233C86.8611 30.9948 87.1951 31.5743 87.3522 32.2619C87.5094 32.9298 87.588 33.7352 87.588 34.6781V42.8698C87.588 43.3609 87.6567 43.7145 87.7942 43.9306C87.9514 44.1467 88.1871 44.2547 88.5014 44.2547C88.7175 44.2547 88.9238 44.2056 89.1202 44.1074C89.3167 44.0092 89.5524 43.852 89.8274 43.6359L90.1515 44.1369C89.739 44.4512 89.3461 44.7164 88.9729 44.9325C88.5996 45.1289 88.0987 45.2271 87.4701 45.2271C86.9004 45.2271 86.4289 45.1289 86.0557 44.9325C85.6825 44.736 85.3976 44.4512 85.2012 44.0779C85.0244 43.6851 84.936 43.1939 84.936 42.6046C84.4056 43.4886 83.7671 44.1467 83.0206 44.5789C82.2938 45.0111 81.4687 45.2271 80.5455 45.2271ZM81.6062 44.0485C82.2545 44.0485 82.8537 43.8619 83.4037 43.4886C83.9734 43.1154 84.4841 42.5555 84.936 41.809V36.0336C84.7002 36.3675 84.3565 36.6524 83.9046 36.8881C83.4528 37.1042 82.9617 37.3301 82.4313 37.5658C81.9009 37.7819 81.3902 38.0471 80.899 38.3614C80.4276 38.6561 80.0347 39.049 79.7204 39.5401C79.4061 40.0312 79.2489 40.6696 79.2489 41.4554C79.2489 42.2412 79.4552 42.8698 79.8677 43.3413C80.2999 43.8127 80.8794 44.0485 81.6062 44.0485Z" fill="#597445"/>
<path d="M61.7589 53.2731V47.6425H59.9832V47.2094H64.0285V47.6425H62.1921V53.2731H61.7589ZM65.3937 53.2731V46.8629H65.8268V49.8081L65.7228 49.9727C65.7864 49.7013 65.9076 49.4703 66.0867 49.2797C66.2657 49.0834 66.4736 48.9332 66.7104 48.8293C66.9529 48.7253 67.1954 48.6734 67.438 48.6734C67.7845 48.6734 68.0703 48.7398 68.2956 48.8726C68.5266 49.0054 68.6969 49.2104 68.8066 49.4876C68.9164 49.7648 68.9712 50.1171 68.9712 50.5444V53.2731H68.5381V50.5618C68.5381 50.2268 68.4948 49.9525 68.4082 49.7388C68.3215 49.5194 68.1887 49.3577 68.0097 49.2537C67.8365 49.144 67.6141 49.0892 67.3427 49.0892C67.129 49.0892 66.9298 49.1296 66.745 49.2104C66.5602 49.2855 66.3985 49.3895 66.2599 49.5223C66.1271 49.6551 66.0203 49.8081 65.9394 49.9814C65.8643 50.1489 65.8268 50.3279 65.8268 50.5184V53.2731H65.6102C65.6045 53.2731 65.5842 53.2731 65.5496 53.2731C65.5207 53.2731 65.4687 53.2731 65.3937 53.2731ZM72.6234 53.3597C72.1903 53.3597 71.8034 53.2615 71.4627 53.0652C71.1277 52.8688 70.865 52.5945 70.6744 52.2423C70.4838 51.89 70.3885 51.48 70.3885 51.0122C70.3885 50.6715 70.4405 50.3596 70.5445 50.0767C70.6542 49.7937 70.8043 49.5483 70.9949 49.3404C71.1855 49.1267 71.4136 48.9621 71.6792 48.8466C71.9506 48.7311 72.2452 48.6734 72.5628 48.6734C72.8746 48.6734 73.1547 48.7253 73.403 48.8293C73.6571 48.9332 73.8708 49.0834 74.044 49.2797C74.2173 49.4703 74.3472 49.6984 74.4338 49.9641C74.5205 50.2239 74.558 50.5127 74.5465 50.8303L74.5378 51.0642H70.709V50.6657H74.3039L74.1133 50.8216V50.6137C74.1133 50.3827 74.0556 50.1517 73.9401 49.9207C73.8304 49.6897 73.66 49.4963 73.429 49.3404C73.198 49.1844 72.9064 49.1065 72.5541 49.1065C72.2249 49.1065 71.9304 49.1787 71.6706 49.323C71.4165 49.4674 71.2143 49.6782 71.0642 49.9554C70.9198 50.2326 70.8476 50.5762 70.8476 50.9862C70.8476 51.3789 70.9198 51.7225 71.0642 52.017C71.2086 52.3058 71.4165 52.531 71.6879 52.6927C71.9651 52.8486 72.3029 52.9266 72.7014 52.9266C72.915 52.9266 73.1345 52.8919 73.3597 52.8226C73.5849 52.7533 73.839 52.6032 74.122 52.3722L74.3472 52.6927C74.2202 52.814 74.07 52.9266 73.8968 53.0305C73.7235 53.1287 73.5301 53.2095 73.3164 53.2731C73.1027 53.3308 72.8717 53.3597 72.6234 53.3597ZM75.9414 53.2731V48.7687H76.3572L76.4005 49.8601L76.2966 49.8428C76.3486 49.658 76.4294 49.4934 76.5391 49.349C76.6546 49.2047 76.7875 49.0834 76.9376 48.9852C77.0935 48.8813 77.2639 48.8033 77.4487 48.7513C77.6335 48.6994 77.8298 48.6734 78.0377 48.6734C78.2572 48.6734 78.4564 48.7109 78.6354 48.786C78.8202 48.8611 78.979 48.9968 79.1119 49.1931C79.2447 49.3895 79.3486 49.6666 79.4237 50.0247L79.2504 49.9034L79.3111 49.7562C79.3688 49.6176 79.4526 49.4847 79.5623 49.3577C79.672 49.2249 79.802 49.1094 79.9521 49.0112C80.1022 48.9072 80.2697 48.8264 80.4545 48.7687C80.6451 48.7051 80.8472 48.6734 81.0609 48.6734C81.3612 48.6734 81.6182 48.7398 81.8318 48.8726C82.0455 49.0054 82.2072 49.2104 82.3169 49.4876C82.4324 49.7648 82.4902 50.1171 82.4902 50.5444V53.2731H82.057V50.5618C82.057 50.2268 82.0137 49.9525 81.9271 49.7388C81.8463 49.5194 81.7221 49.3577 81.5546 49.2537C81.3929 49.144 81.1908 49.0892 80.9483 49.0892C80.723 49.0892 80.518 49.1296 80.3332 49.2104C80.1484 49.2855 79.9896 49.3895 79.8568 49.5223C79.724 49.6551 79.62 49.8081 79.545 49.9814C79.4699 50.1489 79.4324 50.3279 79.4324 50.5184V53.2731H78.9992V50.5618C78.9992 50.2268 78.9559 49.9525 78.8693 49.7388C78.7885 49.5194 78.6643 49.3577 78.4968 49.2537C78.3294 49.144 78.1243 49.0892 77.8818 49.0892C77.6624 49.0892 77.4602 49.1296 77.2754 49.2104C77.0906 49.2855 76.9318 49.3895 76.799 49.5223C76.6662 49.6551 76.5622 49.8081 76.4872 49.9814C76.4121 50.1489 76.3745 50.3279 76.3745 50.5184V53.2731H75.9414ZM86.1489 53.3597C85.7157 53.3597 85.3288 53.2615 84.9881 53.0652C84.6532 52.8688 84.3904 52.5945 84.1998 52.2423C84.0093 51.89 83.914 51.48 83.914 51.0122C83.914 50.6715 83.9659 50.3596 84.0699 50.0767C84.1796 49.7937 84.3298 49.5483 84.5203 49.3404C84.7109 49.1267 84.939 48.9621 85.2047 48.8466C85.4761 48.7311 85.7706 48.6734 86.0882 48.6734C86.4001 48.6734 86.6801 48.7253 86.9285 48.8293C87.1826 48.9332 87.3962 49.0834 87.5695 49.2797C87.7427 49.4703 87.8727 49.6984 87.9593 49.9641C88.0459 50.2239 88.0834 50.5127 88.0719 50.8303L88.0632 51.0642H84.2345V50.6657H87.8294L87.6388 50.8216V50.6137C87.6388 50.3827 87.581 50.1517 87.4655 49.9207C87.3558 49.6897 87.1855 49.4963 86.9545 49.3404C86.7235 49.1844 86.4318 49.1065 86.0796 49.1065C85.7504 49.1065 85.4559 49.1787 85.196 49.323C84.9419 49.4674 84.7398 49.6782 84.5896 49.9554C84.4453 50.2326 84.3731 50.5762 84.3731 50.9862C84.3731 51.3789 84.4453 51.7225 84.5896 52.017C84.734 52.3058 84.9419 52.531 85.2133 52.6927C85.4905 52.8486 85.8283 52.9266 86.2268 52.9266C86.4405 52.9266 86.6599 52.8919 86.8852 52.8226C87.1104 52.7533 87.3645 52.6032 87.6474 52.3722L87.8727 52.6927C87.7456 52.814 87.5955 52.9266 87.4222 53.0305C87.249 53.1287 87.0555 53.2095 86.8418 53.2731C86.6282 53.3308 86.3972 53.3597 86.1489 53.3597Z" fill="#597445"/>
<path d="M59.7668 49.7014H1V50.5761H59.7668V49.7014Z" fill="#597445"/>
<path d="M38.8987 13.2615C44.5239 8.02389 49.189 3.68159 57.948 2.43603C54.2638 1.11938 50.7933 1.04424 47.7781 1.66602C42.7696 2.69877 39.0284 5.62487 37.656 7.96743C36.7462 9.52066 36.1998 11.2218 35.693 12.8012C35.1298 14.555 34.6115 16.1693 33.6952 17.3795C34.7903 16.7938 35.9187 16.0113 37.0487 14.9747C37.5318 14.5317 38.2207 13.8902 38.8965 13.2608L38.8979 13.2624L38.8987 13.2615ZM39.7633 17.8614C37.6019 18.0403 35.5051 18.2136 33.5847 18.8742C27.9881 21.5045 23.2893 19.5845 23.2719 19.5778C22.9406 19.447 22.7778 19.0723 22.9084 18.7409C23.0284 18.437 23.3534 18.2748 23.6621 18.3508C23.9984 18.4185 28.0006 19.1816 31.1185 17.8382C32.9796 17.0365 33.6729 14.8776 34.4651 12.4093C34.992 10.7675 35.56 8.99868 36.5441 7.31909C38.0586 4.7339 42.126 1.51747 47.5199 0.405353C51.4007 -0.395117 55.9749 -0.121239 60.7861 2.23731C61.1063 2.39381 61.2391 2.78044 61.0826 3.10068C61.073 3.12048 61.0621 3.13948 61.0508 3.15793C60.7836 3.64039 57.1612 10.0656 51.3367 14.376C47.4901 17.2227 43.5323 17.55 39.7633 17.8614ZM36.8234 16.8554C37.7539 16.7363 38.6995 16.6582 39.6573 16.5789C43.2457 16.2823 47.0137 15.9709 50.5693 13.3397C54.9557 10.0935 58.0474 5.59521 59.3075 3.57018C50.1592 4.53542 45.4763 8.89395 39.7767 14.201L39.778 14.2025C39.2451 14.6991 38.7019 15.2048 37.9181 15.9237C37.5529 16.2585 37.1877 16.5678 36.8234 16.8554Z" fill="#597445"/>
<path d="M33.0231 7.42652C36.763 12.6809 34.1979 16.605 34.1908 16.6163L34.1887 16.6152C34.0908 16.7687 33.9287 16.8802 33.734 16.9069C33.7184 16.9092 28.3298 17.7011 24.6302 13.5215C21.1517 9.59159 21.4912 3.59912 21.5326 3.0233C21.5373 2.67484 21.8194 2.3919 22.1697 2.38776C22.1905 2.38752 29.3403 2.25186 33.0231 7.42652ZM33.2429 15.6631C33.6555 14.816 34.6671 11.9617 31.9711 8.17395C29.2886 4.405 24.4813 3.79284 22.7924 3.69534C22.7632 5.28913 22.9456 9.67286 25.5962 12.667C28.3383 15.7651 32.1352 15.7436 33.2429 15.6631Z" fill="#597445"/>
<path d="M34.2545 16.0562C34.3721 16.3923 34.1952 16.76 33.8591 16.878C33.5231 16.9957 33.1554 16.8187 33.0374 16.4826C33.0312 16.4647 30.9119 10.2718 21.7949 3.55229C21.508 3.34108 21.4467 2.93742 21.6577 2.65059C21.8687 2.36343 22.2725 2.30204 22.5594 2.51318C31.9989 9.47049 34.2479 16.0371 34.2545 16.0562Z" fill="#597445"/>
</svg>
