<svg width="16" height="17" viewBox="0 0 16 17" fill="none" xmlns="http://www.w3.org/2000/svg">
<path d="M8 0.5C3.58873 0.5 0 4.08873 0 8.5C0 12.9113 3.589 16.5 8 16.5C12.411 16.5 16 12.9113 16 8.5C16 4.08873 12.4113 0.5 8 0.5Z" fill="#008C56"/>
<path d="M11.5349 5.2013C11.7055 5.41094 11.8799 5.63393 12.0551 5.86681C12.092 6.34164 12.1019 6.77668 12.1392 7.25231C12.1339 7.45581 12.0714 7.7258 12.0121 7.75144C12.0121 7.75144 11.9216 7.80352 11.861 7.74583C11.8169 7.72821 11.6409 7.45233 11.6409 7.45233C11.5509 7.36981 11.4908 7.39331 11.4267 7.45233C11.2499 7.62299 11.1701 7.94265 11.0499 8.16271C11.0189 8.21185 10.9316 8.25378 10.8347 8.15897C10.6328 7.88337 10.6931 7.51242 10.7046 7.45501L10.7019 7.46649C10.4827 7.71379 10.5796 8.12319 10.6293 8.21132C10.7017 8.35606 10.7602 8.44873 10.9009 8.52003C11.0291 8.61431 11.129 8.55555 11.184 8.48932C11.313 8.35579 11.3146 8.01396 11.3752 7.94613C11.4177 7.82194 11.5239 7.84331 11.576 7.89832C11.6262 7.9707 11.6858 8.0177 11.7598 8.05695C11.8799 8.16298 12.0236 8.18247 12.1651 8.08553C12.2618 8.03132 12.3246 7.96081 12.3812 7.82168C12.4418 7.65931 12.4119 6.80766 12.3983 6.33389C12.4891 6.46182 12.5788 6.59267 12.668 6.72487C12.7073 7.14068 12.7249 7.55035 12.7121 7.94292C12.7027 8.0209 12.9845 7.70978 12.9826 7.56236C12.9813 7.43337 12.9829 7.3164 12.9826 7.20771C13.1196 7.42578 13.2509 7.64733 13.3765 7.87215C13.454 7.83102 13.4275 7.39251 13.3784 7.33189C13.2475 7.11237 13.0798 6.87496 12.95 6.69122C12.9244 6.45941 12.8894 6.18594 12.8737 6.10235C12.8488 5.97176 12.824 5.77548 12.7866 5.62058C12.7764 5.55996 12.7452 5.36661 12.7551 5.34818C12.7703 5.30492 12.828 5.34952 12.8566 5.29931C12.899 5.25284 12.7091 4.76092 12.6127 4.62045C12.578 4.55742 12.5153 4.57932 12.4378 4.6816C12.366 4.7489 12.3921 4.90273 12.4197 5.04881C12.491 5.42136 12.5548 5.80058 12.6053 6.179C12.5118 6.04013 12.398 5.87242 12.2859 5.71058L12.2714 5.63687C12.2714 5.6302 12.2559 5.33216 12.2429 5.26112C12.2405 5.23228 12.2338 5.224 12.264 5.22774C12.296 5.25471 12.3003 5.25605 12.3203 5.26513C12.3526 5.271 12.3809 5.21626 12.3614 5.16578L12.0613 4.6111C12.0492 4.59935 12.0356 4.5868 12.0201 4.5844C12.0046 4.58199 11.9876 4.58974 11.9686 4.61778C11.9451 4.63823 11.9263 4.66352 11.9134 4.69191C11.9005 4.72029 11.894 4.75112 11.8941 4.78229C11.9029 4.91341 11.9264 5.04774 11.9352 5.17914L11.9448 5.23175C11.9343 5.21819 11.9231 5.20509 11.9114 5.19249C11.6556 4.92383 12.0289 5.14869 11.8626 4.94092C11.7218 4.78656 11.6807 4.73742 11.5605 4.64448C11.5002 4.60549 11.4636 4.53098 11.4438 4.65784C11.4361 4.76947 11.4278 4.89846 11.4353 4.99246C11.4339 5.04507 11.4882 5.14335 11.5349 5.2013ZM5.23472 7.1754C5.23178 7.224 5.36878 7.28302 5.37706 7.39519C5.39655 7.44139 5.34768 7.58987 5.38854 7.60349C5.42593 7.61898 5.47801 7.50094 5.4975 7.39118C5.50845 7.33109 5.4505 7.12092 5.35222 7.08326C5.33689 7.07987 5.32116 7.07861 5.30549 7.07952C5.25795 7.08299 5.21549 7.10836 5.23472 7.1754Z" fill="#F0F0F0"/>
<path d="M11.9495 6.36097C11.9459 6.36041 11.9423 6.36077 11.9388 6.36203C11.9388 6.36203 11.3556 6.77678 11.3412 6.79146C11.2832 6.84274 11.3123 7.02354 11.3412 7.00271C11.3831 7.01873 11.9701 6.62081 11.9589 6.57435C11.9845 6.57568 11.9971 6.36951 11.9495 6.36097ZM13.0218 5.41531C13.0423 5.47834 12.9905 5.68157 13.0333 5.70026C13.0725 5.72136 13.1275 5.55979 13.1481 5.4105C13.1593 5.32879 13.0989 5.04196 12.9961 4.99069C12.988 4.98851 12.9797 4.98726 12.9713 4.98695C12.9125 4.98481 12.8484 5.02941 12.8738 5.11701C12.8589 5.16481 12.9991 5.32665 13.0218 5.41531ZM11.6213 6.36577C11.6235 6.24747 11.6349 6.0899 11.6413 5.99189C11.644 5.95504 11.6528 5.91418 11.6881 5.90483C11.7236 5.89548 11.785 5.94035 11.7856 5.90189C11.7791 5.82658 11.7639 5.71549 11.7215 5.66287C11.7108 5.64749 11.6967 5.63482 11.6803 5.62587C11.6639 5.61692 11.6456 5.61194 11.6269 5.61133C11.5652 5.6084 11.4993 5.64845 11.4824 5.73284C11.4827 5.78252 11.5049 5.81002 11.5006 5.85516C11.4942 5.88106 11.4675 5.89789 11.4039 5.86771C11.4138 5.85863 11.3628 5.78652 11.3628 5.78652C11.3134 5.75635 11.2472 5.78813 11.2042 5.81617C11.1887 5.84552 11.1795 5.87773 11.177 5.91081C11.1745 5.94389 11.1789 5.97712 11.1897 6.00845C11.2611 6.13957 11.5049 6.36364 11.6213 6.36577ZM9.14114 7.13837L9.14221 7.1373L9.14328 7.13624L9.14435 7.13517V7.1333C9.14458 7.13006 9.14422 7.1268 9.14328 7.12368L9.08773 7.0911L7.99493 7.0863C7.98436 7.0827 7.97437 7.07757 7.96529 7.07107L7.96342 7.0692L7.96262 7.06814L7.96155 7.06707L7.96075 7.0652L7.95968 7.06413V7.06306L7.95861 7.06199V7.05345L7.95968 7.05238L7.96075 7.05051C7.96609 7.0433 7.97891 7.03662 7.9952 7.03048C8.25611 6.99496 8.71973 6.91885 8.75044 6.47313C8.74563 6.24079 8.65109 6.08883 8.36614 6.04664C8.15677 6.06293 8.00748 6.26536 8.03152 6.48835C8.02164 6.54844 8.05181 6.66621 7.99039 6.67957C7.58873 6.71615 7.15022 6.96799 7.13554 7.14799H7.13447L7.1334 7.14906L7.13153 7.15012H7.12966L7.12672 7.15119H7.12111C7.11986 7.15087 7.11861 7.15051 7.11738 7.15012C7.0912 7.14291 7.05755 7.09965 7.0629 7.03929C7.04767 6.7279 6.94619 6.37565 6.78756 6.10432C6.73094 6.04771 6.70611 6.02474 6.69008 6.02207H6.68234C6.68074 6.0226 6.67913 6.02394 6.67753 6.02501L6.67459 6.02688C6.66231 6.03622 6.64789 6.05732 6.61531 6.08029C6.56056 6.14251 6.55068 6.18604 6.55415 6.31076C6.55735 6.32385 6.65804 6.60426 6.74349 6.80134C6.80118 7.00618 6.85432 7.24066 6.81533 7.46205C6.68047 7.75474 6.4094 8.01726 6.14795 8.16014C6.01469 8.20287 5.89959 8.18818 5.86888 8.15907L5.86781 8.158C5.84254 8.14049 5.82239 8.11656 5.80944 8.08868C5.79648 8.0608 5.79119 8.02997 5.7941 7.99937V7.9983L5.79517 7.99723C6.01576 7.84341 6.26813 7.71896 6.46549 7.30395C6.52371 7.14532 6.5416 7.04998 6.48365 6.80482C6.46095 6.71348 6.43317 6.63817 6.37095 6.57354L6.37202 6.57248C6.40967 6.55458 6.50715 6.62642 6.5221 6.58102C6.49914 6.46405 6.41982 6.30675 6.32982 6.22637C6.25131 6.15506 6.16558 6.14678 6.09374 6.21195C6.01256 6.25708 5.99546 6.41918 6.03445 6.56099C6.07772 6.66782 6.19496 6.68651 6.27828 6.90149V6.90256C6.28015 6.91591 6.30685 7.06306 6.26493 7.12235C6.23074 7.22864 5.79303 7.57394 5.76205 7.59478C5.76111 7.59546 5.76013 7.59608 5.75912 7.59664L5.75805 7.59771L5.75698 7.59878L5.75591 7.59985H5.75378L5.75298 7.59878V7.59771L5.75191 7.59584C5.75057 7.5873 5.75297 7.5654 5.75191 7.52988C5.74897 7.46525 5.77567 7.3189 5.77381 7.2938V7.29273L5.773 7.29166V7.2906H5.77194C5.62719 7.38407 5.57939 7.67062 5.55295 7.75528C5.18654 8.00845 4.77047 8.19672 4.53092 8.45337C4.4062 8.64832 5.39084 8.22957 5.50514 8.17883L5.50808 8.18177C5.52971 8.20581 5.53158 8.28913 5.59701 8.36444C5.6993 8.50304 5.91695 8.5885 6.12873 8.53562C6.48365 8.40743 6.68821 8.16521 6.89652 7.89682C6.92616 7.85355 6.9729 7.81937 7.01616 7.85275C7.1593 8.17322 7.57191 8.40102 8.10522 8.42453C8.22861 8.27444 8.16959 8.20073 8.11965 8.16922C8.10416 8.15907 7.85446 8.06159 7.81547 7.96465C7.79116 7.87438 7.85045 7.79427 7.96929 7.73418C8.31166 7.69279 8.64842 7.64685 8.97423 7.5419C8.97744 7.4324 9.04206 7.2687 9.08506 7.19766C9.1147 7.15012 9.13393 7.14532 9.14114 7.13837ZM8.23982 6.45203C8.24067 6.44869 8.24193 6.44546 8.24356 6.44242C8.24409 6.44135 8.24463 6.43948 8.24543 6.43868L8.24623 6.43761C8.2477 6.43588 8.2493 6.43427 8.25104 6.4328C8.25917 6.42685 8.26877 6.42325 8.27881 6.42239C8.30886 6.42139 8.33853 6.42938 8.364 6.44536C8.40753 6.47046 8.43424 6.50865 8.43104 6.53616V6.53909L8.42917 6.54203L8.4281 6.54497L8.42703 6.54684L8.42596 6.54871C8.42439 6.55117 8.4225 6.55341 8.42035 6.55538C8.39952 6.57488 8.35119 6.57221 8.30552 6.54577C8.26225 6.52093 8.23582 6.48248 8.23849 6.45497C8.23902 6.45417 8.23982 6.45283 8.23982 6.45203ZM7.80291 7.5467C7.68568 7.58676 7.57298 7.61828 7.57244 7.78759C7.58793 7.87145 7.58446 7.91551 7.57164 7.93581L7.5679 7.94062L7.56684 7.94168L7.56577 7.94275L7.56497 7.94382L7.5639 7.94489L7.56203 7.94596C7.56015 7.9471 7.55819 7.94808 7.55615 7.94889L7.55054 7.94996C7.52277 7.95397 7.48218 7.92753 7.452 7.91177C7.37963 7.85996 7.17693 7.73418 7.14782 7.46418C7.14381 7.4033 7.18921 7.35068 7.26266 7.34561H7.27494C7.39672 7.37873 7.57618 7.3822 7.73188 7.39822C7.859 7.40543 7.92176 7.50504 7.80291 7.5467Z" fill="#F0F0F0"/>
<path d="M7.43538 6.49014C7.56116 6.55023 7.86107 6.51471 7.78816 6.32083C7.78692 6.28925 7.7847 6.25773 7.78149 6.22629C7.76867 6.19638 7.7449 6.18516 7.7222 6.1889C7.6995 6.19291 7.6776 6.2116 7.66959 6.24231C7.66451 6.26261 7.6792 6.29626 7.66104 6.30641C7.65063 6.31709 7.60977 6.31095 7.61137 6.25486C7.61137 6.23697 7.59828 6.21748 7.59027 6.20599C7.58226 6.20065 7.57799 6.19932 7.56357 6.19932C7.54594 6.20012 7.54541 6.20466 7.53579 6.21935C7.53179 6.2343 7.52618 6.24926 7.52618 6.26608C7.52404 6.28611 7.5171 6.29279 7.50241 6.29572C7.48612 6.29572 7.48986 6.29759 7.47651 6.28905C7.46849 6.2805 7.45834 6.27703 7.45834 6.26234C7.45852 6.24547 7.45591 6.22869 7.4506 6.21267C7.44366 6.20359 7.43164 6.19958 7.41909 6.19638C7.35045 6.19665 7.34618 6.27463 7.35019 6.30454C7.34511 6.31015 7.34164 6.45115 7.43538 6.49014ZM11.9756 11.7213C11.9006 11.7325 11.6896 11.7539 11.6896 11.7539C11.4458 11.7248 11.2669 11.7218 10.9926 11.7117C11.018 11.6796 11.0626 11.5493 11.0078 11.5023C10.9937 11.4905 10.9723 11.4839 10.9429 11.486H10.94L10.9389 11.4849L10.936 11.4839C10.9342 11.4825 10.9326 11.4809 10.9312 11.4791L10.9293 11.4772C10.9154 11.4569 10.9079 11.4075 10.8986 11.3949L10.8975 11.3939L10.8967 11.3928L10.8949 11.3917H10.8927L10.8919 11.3925C10.7106 11.439 10.7162 11.6273 10.8326 11.7101C8.91755 11.7101 5.97831 11.6775 5.34805 11.6775C4.99553 11.6775 3.87976 11.6353 3.8584 11.6353C4.09768 11.9851 4.44432 12.0564 4.89779 12.0637C5.74837 12.0637 9.68988 12.0532 10.8115 12.0532C10.7317 12.1948 10.8187 12.4226 10.8812 12.4645L10.886 12.4674C10.8884 12.4685 10.8914 12.4698 10.8938 12.4704H10.8967C10.971 12.488 11.0035 12.4341 11.0286 12.3948C11.1491 12.4055 11.8272 12.4151 11.8891 12.3937L11.8902 12.3927C11.9321 12.4544 11.9738 12.5128 12.0536 12.5027C12.1933 12.4728 12.3036 12.4576 12.3071 12.1737C12.3073 12.1745 12.2929 11.6911 11.9756 11.7213ZM11.8389 12.2396L11.8341 12.2415H11.8266L11.5924 12.2348C11.5925 12.2303 11.5919 12.2258 11.5905 12.2215C11.5689 12.1577 11.4129 12.1619 11.3764 12.2119L11.3745 12.2148L11.3726 12.2185L11.3707 12.2234L11.3697 12.23C11.3694 12.2324 11.3686 12.2354 11.3686 12.2378C11.246 12.2525 11.1355 12.2338 11.0129 12.2292C10.9768 12.1844 10.9811 12.1034 11.0233 12.0839H11.0241C11.3035 12.0976 11.566 12.0866 11.8456 12.1002C11.8899 12.1376 11.8677 12.2239 11.8389 12.2396ZM8.55836 8.35768C8.55836 8.36249 8.6075 8.40468 8.66545 8.37103C8.78749 8.32457 8.86361 8.27917 9.03452 8.24205C9.07939 8.24124 9.07672 8.12107 9.00595 8.1168C8.91328 8.12134 8.82782 8.12614 8.73542 8.19905C8.67853 8.21213 8.66865 8.17742 8.6561 8.14644C8.64168 8.06926 8.68868 8.01505 8.67907 7.95709C8.68174 7.95977 8.65023 7.93146 8.61017 7.92932C8.59559 7.9284 8.58104 7.93135 8.56797 7.93787C8.56503 7.93787 8.43925 8.02306 8.39866 8.08234C8.37382 8.10104 8.37676 8.1176 8.38424 8.15018C8.40346 8.19451 8.43738 8.18062 8.4761 8.15979C8.52738 8.15285 8.55195 8.18623 8.54794 8.24765C8.52418 8.32457 8.55836 8.35288 8.55836 8.35768ZM12.7808 8.32724C12.7571 8.3 12.7031 8.31629 12.6671 8.31201C12.65 8.31201 12.5933 8.30374 12.6203 8.2538C12.6427 8.22282 12.651 8.20412 12.6663 8.16593C12.6833 8.12855 12.6684 8.10318 12.607 8.08288C12.5821 8.07783 12.5567 8.07559 12.5314 8.0762C12.5087 8.077 12.4846 8.07994 12.4502 8.08288C12.4128 8.09089 12.3997 8.10718 12.3928 8.15258C12.3955 8.22148 12.4376 8.21801 12.4806 8.24525C12.5057 8.27703 12.5218 8.30587 12.4788 8.35795C12.4379 8.39534 12.4088 8.41617 12.3679 8.45356C12.3487 8.4864 12.3367 8.53715 12.3957 8.5529C12.5047 8.58361 12.757 8.41964 12.757 8.41617C12.7979 8.38546 12.7843 8.32724 12.7808 8.32724ZM10.8313 8.00143C10.9189 8.00196 11.0204 7.80087 11.0636 7.60164C11.0874 7.32737 11.0479 7.16046 11.0407 6.99916C11.0335 6.83785 10.8583 5.53007 10.8227 5.40802C10.7797 5.17728 10.9934 5.37758 10.9699 5.24351C10.8962 5.07447 10.7119 4.82824 10.6545 4.68136C10.6329 4.6421 10.6302 4.60551 10.6123 4.60872C10.6016 4.61059 10.5859 4.62688 10.5568 4.66507C10.4849 4.90034 10.4595 5.09263 10.4871 5.23871C10.6721 6.20412 10.8615 7.08301 10.8313 8.00143Z" fill="#F0F0F0"/>
<path d="M13.5647 5.44738C13.5564 5.38649 13.5295 5.24655 13.5399 5.22839C13.5567 5.18566 13.6408 5.23266 13.671 5.18352C13.7151 5.13866 13.4531 4.80296 13.3612 4.65955C13.3428 4.6235 13.3316 4.59386 13.3153 4.59546C13.3027 4.5968 13.2873 4.61709 13.2638 4.66703C13.2069 4.75997 13.1874 4.92635 13.2101 5.07349C13.3468 5.99752 13.4483 6.89243 13.4691 7.7115C13.4574 7.78921 13.4539 7.83061 13.4176 7.92862C13.3369 8.03197 13.248 8.16149 13.1641 8.22398C13.0803 8.28647 12.9022 8.34603 12.8437 8.39223C12.6589 8.49905 12.6578 8.62217 12.8073 8.62644C13.0651 8.59653 13.3698 8.57543 13.5799 8.25843C13.636 8.1695 13.7023 7.92862 13.7052 7.7812C13.725 6.917 13.6942 6.07203 13.5647 5.44738ZM11.8614 7.48717C11.9007 7.50827 12.0038 7.38141 12 7.22225C12.0115 7.14053 11.9709 6.83928 11.8681 6.78801C11.8559 6.78475 11.8433 6.78376 11.8307 6.78507C11.777 6.79175 11.726 6.84249 11.7495 6.92367C11.7348 6.97148 11.8224 7.13812 11.8451 7.22679C11.8657 7.29008 11.819 7.46821 11.8614 7.48717ZM3.74659 4.92821C3.87237 4.9883 4.10845 4.96293 4.09857 4.75997C4.0976 4.7284 4.09564 4.69687 4.0927 4.66543C4.07988 4.63552 4.05638 4.6243 4.03368 4.62831C4.01098 4.63231 3.98908 4.65101 3.98107 4.68172C3.97599 4.70202 3.98988 4.73567 3.97145 4.74581C3.96104 4.7565 3.92098 4.74929 3.92258 4.6932C3.92258 4.67531 3.9095 4.65662 3.90148 4.6454C3.89347 4.64033 3.88813 4.63872 3.87371 4.63872C3.85608 4.63952 3.85662 4.64406 3.84701 4.65875C3.84273 4.67371 3.83712 4.6884 3.83712 4.70549C3.83499 4.72552 3.82698 4.73219 3.81229 4.73513C3.796 4.73513 3.79974 4.737 3.78638 4.72846C3.77864 4.71991 3.76929 4.71644 3.76929 4.70175C3.7691 4.68484 3.76621 4.66807 3.76074 4.65208C3.7538 4.643 3.74285 4.63819 3.73003 4.63498C3.6614 4.63525 3.65633 4.7143 3.66033 4.74394C3.65552 4.74929 3.65285 4.88922 3.74659 4.92821ZM5.64778 5.58518C5.6266 5.58486 5.60586 5.59121 5.58849 5.60334C5.47713 5.66343 5.43413 5.84209 5.5033 5.94651C5.56793 6.03864 5.67048 6.00473 5.6841 6.00473C5.79306 6.01835 5.85822 5.80016 5.85822 5.80016C5.85822 5.80016 5.86143 5.73874 5.7319 5.85464C5.67742 5.86479 5.66994 5.84529 5.65632 5.81458C5.64336 5.75717 5.64936 5.69711 5.67342 5.6434C5.6857 5.60948 5.67368 5.58785 5.64778 5.58518ZM10.1742 7.80523C9.97172 8.01648 9.68009 8.27713 9.36229 8.39704C9.32811 8.43549 9.44722 8.59893 9.60131 8.59866C9.85902 8.56875 10.0855 8.42401 10.2954 8.04318C10.3515 7.95425 10.4503 7.76411 10.4532 7.61669C10.473 6.75249 10.4097 6.08057 10.2802 5.45592C10.2719 5.39503 10.2775 5.32319 10.2879 5.30477C10.3045 5.28474 10.3611 5.3053 10.3913 5.2559C10.4353 5.21103 10.2738 4.83822 10.1819 4.69454C10.1635 4.65849 10.1523 4.62991 10.136 4.63151C10.1234 4.63285 10.1079 4.65234 10.0844 4.70228C10.0278 4.79522 9.98908 4.95706 9.99362 5.10875C10.1165 5.95986 10.1541 6.70442 10.2345 7.55554C10.2409 7.63806 10.2289 7.75743 10.1742 7.80523ZM3.16707 6.52923C2.86476 6.53484 2.42252 6.92528 2.41076 7.14213C2.72963 6.9891 3.04289 6.84169 3.36683 6.68306C3.31449 6.60507 3.36363 6.53484 3.16707 6.52923ZM2.58115 8.13265C2.50156 8.29395 2.46872 8.18366 2.46151 8.09339C2.44922 7.92247 2.46578 7.76491 2.48447 7.64019C2.49435 7.57637 2.49409 7.55393 2.48634 7.5542C2.47886 7.55447 2.46338 7.57717 2.44335 7.60307C2.26362 7.88936 2.24759 8.31692 2.34667 8.44457C2.39928 8.50493 2.48634 8.53137 2.55044 8.51241C2.6634 8.46353 2.71307 8.23466 2.6861 8.15108C2.64845 8.09179 2.6188 8.08244 2.58115 8.13265Z" fill="#F0F0F0"/>
<path d="M2.61648 6.26824C2.98368 6.30349 2.78098 5.64733 2.91398 5.52822C2.93908 5.46947 2.98555 5.4684 2.98956 5.54264V6.09999C2.98608 6.28133 3.10546 6.33501 3.19813 6.37239C3.29454 6.36492 3.35836 6.36759 3.39602 6.46132C3.41097 6.7826 3.42673 7.10467 3.44195 7.42621C3.44195 7.42621 3.66468 7.4903 3.67536 6.88408C3.68604 6.52809 3.60459 6.22952 3.6524 6.16035C3.654 6.09225 3.74133 6.08905 3.80141 6.12216C3.89729 6.18999 3.94002 6.27332 4.0893 6.23967C4.3163 6.17717 4.45304 6.06688 4.45651 5.89249C4.44315 5.72691 4.42393 5.56107 4.35235 5.39523C4.3625 5.36505 4.30882 5.2868 4.31897 5.25662C4.35983 5.32045 4.42152 5.31511 4.43568 5.25662C4.39695 5.12924 4.33686 5.00719 4.23966 4.95458C4.15927 4.88381 4.04177 4.89877 3.99877 5.04645C3.97874 5.21657 4.06046 5.41819 4.18438 5.58297C4.21081 5.64733 4.2474 5.75442 4.23111 5.85056C4.16515 5.88822 4.09998 5.87246 4.0447 5.81424C4.0447 5.81424 3.86391 5.67884 3.86391 5.64893C3.91198 5.34182 3.87432 5.30683 3.84761 5.22164C3.82892 5.10413 3.77337 5.06675 3.72797 4.98636C3.68284 4.93856 3.62142 4.93856 3.59231 4.98636C3.51246 5.12497 3.54984 5.4222 3.60753 5.5552C3.64919 5.67778 3.71328 5.75415 3.68311 5.75415C3.65827 5.82332 3.60673 5.8073 3.56934 5.72745C3.5162 5.56241 3.50525 5.31645 3.50525 5.20535C3.48922 5.06781 3.47133 4.77405 3.38106 4.69954C3.35703 4.66669 3.32845 4.65521 3.30068 4.65841C3.26516 4.66269 3.23178 4.69153 3.21549 4.73025C3.20767 4.86317 3.21053 4.99651 3.22403 5.12897C3.28599 5.34956 3.30575 5.54371 3.33593 5.76964C3.34421 6.07222 3.16127 5.9005 3.16955 5.75042C3.21175 5.55546 3.20053 5.24888 3.16288 5.1709C3.13297 5.09318 3.09852 5.07396 3.02614 5.08678C2.96873 5.0833 2.81997 5.24514 2.77858 5.51327C2.77858 5.51327 2.74386 5.6508 2.72891 5.77338C2.70861 5.91172 2.61674 6.00973 2.55292 5.75415C2.49763 5.56828 2.46372 5.11054 2.37132 5.21763C2.34434 5.57469 2.31283 6.20361 2.61648 6.26824Z" fill="#F0F0F0"/>
<path d="M2.7338 4.92153C2.75303 4.9696 2.71457 5.12423 2.7549 5.13865C2.79175 5.15467 2.84276 5.03156 2.86199 4.91779C2.87267 4.85557 2.86466 4.64219 2.71964 4.59839C2.71209 4.59672 2.70441 4.59574 2.69668 4.59545C2.64113 4.59385 2.57997 4.6283 2.60401 4.6948C2.59012 4.73138 2.71243 4.85396 2.7338 4.92153ZM4.83101 7.70348C4.96186 7.26764 4.82834 6.93889 4.87213 6.8983L4.874 6.89723L4.87587 6.89616L4.87774 6.89509L4.88335 6.89402C5.04492 7.06815 5.27165 6.91619 5.32133 6.85583C5.34269 6.82566 5.39583 6.80616 5.43322 6.84542C5.55927 6.93595 5.78013 6.89322 5.82633 6.73352C5.85304 6.57729 5.87547 6.41652 5.88081 6.24961C5.79883 6.27498 5.7326 6.29421 5.70589 6.32225C5.69966 6.3286 5.69532 6.33655 5.69334 6.34522L5.67224 6.48382C5.67156 6.48747 5.6703 6.49099 5.6685 6.49424C5.66459 6.50014 5.65939 6.50507 5.65328 6.50866C5.62417 6.52441 5.5737 6.51533 5.57102 6.47341C5.53203 6.29581 5.37127 6.27285 5.27352 6.54792C5.20783 6.60106 5.08818 6.61147 5.07563 6.53162C5.09166 6.34709 5.01715 6.32225 4.86813 6.40931C4.82032 6.04371 4.77279 5.6944 4.72472 5.32879C4.78694 5.32692 4.84383 5.37206 4.90071 5.30102C4.83929 5.10981 4.70923 4.7207 4.63579 4.68438L4.63392 4.68331C4.63079 4.67952 4.6273 4.67603 4.6235 4.6729L4.6187 4.66916L4.61389 4.66622C4.61083 4.66463 4.60761 4.66338 4.60427 4.66248C4.5976 4.66061 4.59119 4.65981 4.58424 4.66061C4.56608 4.66302 4.54579 4.67343 4.52202 4.67877C4.44404 4.70361 4.37087 4.77118 4.39383 4.90257C4.48624 5.46339 4.54632 5.89149 4.63846 6.45258C4.65261 6.51827 4.5976 6.6048 4.52656 6.59599C4.40585 6.51427 4.37594 6.34896 4.17004 6.3559C4.02102 6.35777 3.8509 6.51987 3.82954 6.6761C3.8047 6.80029 3.79589 6.93488 3.82954 7.04331C3.93422 7.16936 4.06001 7.15601 4.17004 7.12743C4.26057 7.09031 4.33508 7.00085 4.36686 7.02221H4.36793V7.02328C4.38769 7.05773 4.36606 7.34962 3.94144 7.57502C3.68052 7.69226 3.47275 7.7203 3.36112 7.50719C3.29195 7.37393 3.36619 6.86705 3.19581 6.98429C2.6916 8.28353 4.37674 8.46513 4.56502 7.0377C4.5773 6.99737 4.61442 6.95705 4.64059 6.96693C4.65208 6.97174 4.66249 6.98749 4.6665 7.0166C4.62751 8.3089 3.36299 8.39756 3.14801 7.99083C3.09486 7.89496 3.07884 7.68184 3.0735 7.55392C3.06388 7.47648 3.04439 7.43188 3.02195 7.41425C2.97068 7.3758 2.90178 7.47621 2.88709 7.65033C2.86572 7.79054 2.87187 7.82899 2.87187 7.96386C2.93917 8.98509 4.56635 8.54658 4.83101 7.70348ZM4.20235 6.82031V6.82138C4.20208 6.82192 4.20182 6.82298 4.20128 6.82325C4.18873 6.83954 4.14413 6.83287 4.11235 6.83287C4.0739 6.83126 4.0552 6.82485 4.03197 6.79361C4.02102 6.75889 4.0544 6.72471 4.06936 6.69907L4.07016 6.698C4.07215 6.69523 4.07438 6.69264 4.07683 6.69026C4.09503 6.67479 4.11812 6.66627 4.142 6.66622C4.17164 6.66649 4.20289 6.68118 4.21944 6.72257C4.22552 6.73891 4.22714 6.75658 4.22414 6.77376C4.22114 6.79093 4.21362 6.807 4.20235 6.82031ZM9.58304 5.84555C9.70883 5.90564 9.94597 5.8792 9.93583 5.67624C9.93459 5.64466 9.93236 5.61313 9.92915 5.5817C9.91633 5.55179 9.89256 5.54057 9.86986 5.54431C9.84716 5.54832 9.82526 5.56781 9.81725 5.59879C9.81218 5.61909 9.82687 5.65167 9.80871 5.66182C9.79829 5.6725 9.75743 5.66636 9.75903 5.61027C9.75903 5.59238 9.74595 5.57289 9.73794 5.5614C9.72992 5.55633 9.72458 5.55472 9.71016 5.55472C9.69254 5.55553 9.69307 5.56007 9.68346 5.57475C9.67945 5.58971 9.67384 5.60466 9.67384 5.62149C9.67171 5.64152 9.66476 5.6482 9.65007 5.65113C9.63378 5.65113 9.63672 5.653 9.62337 5.64446C9.61536 5.63591 9.60628 5.63244 9.60628 5.61775C9.60608 5.60084 9.6032 5.58408 9.59773 5.56808C9.59079 5.559 9.57984 5.55499 9.56702 5.55179C9.49838 5.55205 9.49438 5.63004 9.49812 5.65995C9.49278 5.66582 9.48931 5.80683 9.58304 5.84555ZM9.66797 5.0588C9.71283 5.18458 9.63378 5.30449 9.68052 5.32185C9.72352 5.34135 9.78334 5.19206 9.80577 5.05426C9.83167 4.94263 9.75209 4.71429 9.63939 4.66702C9.63062 4.66509 9.62167 4.66411 9.61269 4.66409C9.54833 4.66222 9.47675 4.70281 9.50453 4.78373C9.48824 4.82753 9.64313 4.97681 9.66797 5.0588Z" fill="#F0F0F0"/>
<path d="M4.98132 5.66394H4.98238L4.98345 5.66501H4.98452L4.98559 5.66608C5.00936 5.6821 5.30392 5.68183 5.3365 5.66714L5.3373 5.66608H5.33837V5.66501C5.43959 5.62762 5.91976 5.07882 5.91976 5.07882C5.89492 5.05745 5.87195 5.04169 5.84712 5.0206C5.82041 4.99763 5.82308 4.97493 5.84712 4.9517C5.96596 4.88253 5.9283 4.7303 5.86635 4.66114C5.82152 4.64026 5.77234 4.63046 5.72294 4.63256C5.68285 4.63474 5.64369 4.64549 5.6081 4.66407C5.52478 4.74393 5.50502 4.87211 5.57071 4.95196C5.63454 4.98214 5.69837 5.0465 5.6559 5.08202C5.47511 5.2751 5.00455 5.59771 4.98078 5.65673L4.97998 5.6586V5.66154L4.98078 5.66341L4.98132 5.66394ZM5.69329 4.80348L5.6989 4.80241C5.72828 4.79947 5.7638 4.82645 5.78116 4.86464C5.79958 4.90523 5.7905 4.94422 5.76006 4.9517C5.72988 4.95917 5.69062 4.9322 5.6722 4.89134C5.65377 4.85075 5.66312 4.81096 5.69329 4.80348ZM8.50168 5.10712C8.71259 5.38948 8.91599 5.67738 9.11164 5.97052C9.14235 6.18951 9.16505 6.40369 9.17947 6.61681C9.21125 7.08442 9.22087 7.66661 9.19202 8.15907C9.27962 8.16254 9.42009 8.01752 9.46923 7.80521C9.50128 7.51145 9.45775 6.91244 9.45481 6.73912C9.45204 6.65655 9.44821 6.57402 9.44333 6.49155C9.68244 6.8822 9.90475 7.28288 10.1096 7.69252C10.1887 7.65486 10.1713 7.20914 10.1249 7.14665C9.951 6.7725 9.71092 6.40316 9.63427 6.26135C9.60677 6.21008 9.51249 6.06693 9.40086 5.90189C9.3803 5.66634 9.35787 5.46685 9.34345 5.4065C9.30766 5.1576 9.44573 5.43454 9.42677 5.28979C9.3819 5.04116 9.24463 4.87211 9.08253 4.64431C9.03019 4.57034 9.03126 4.55511 8.9506 4.66247C8.90227 4.77197 8.90307 4.86303 8.91722 4.94822C8.89066 4.9093 8.86223 4.87169 8.83203 4.83553C8.69209 4.71535 8.68354 4.70894 8.56711 4.61093C8.53052 4.58503 8.46082 4.54497 8.40741 4.54977C8.37536 4.55271 8.34999 4.5714 8.34037 4.61867C8.32756 4.72977 8.33423 4.79013 8.35293 4.88253C8.36761 4.94422 8.45735 5.0473 8.50168 5.10712ZM8.9482 5.0903C8.95354 5.11433 8.95888 5.13837 8.96262 5.16294C8.97464 5.21582 8.98505 5.26843 8.996 5.32077C8.96375 5.27507 8.92999 5.23044 8.89479 5.18697C8.78983 5.06226 8.89692 5.10499 8.9482 5.0903Z" fill="#F0F0F0"/>
<path d="M6.3567 5.98483C6.50358 6.04572 6.59678 5.76611 6.65687 5.45979C6.698 5.3738 6.72951 5.36392 6.75061 5.40825C6.74527 5.81524 6.77972 5.90631 6.8844 6.02969C7.11781 6.20996 7.3109 6.05239 7.32612 6.03744L7.50772 5.85584C7.54831 5.81338 7.60172 5.8107 7.65887 5.84809C7.71442 5.89857 7.70721 5.98563 7.82632 6.04598C7.92647 6.08604 8.14011 6.0556 8.18978 5.9696C8.25655 5.8553 8.27257 5.81605 8.30355 5.77252C8.35109 5.70922 8.43254 5.73726 8.43254 5.75729C8.42506 5.79254 8.37699 5.82753 8.40957 5.89109C8.46619 5.93355 8.47928 5.90631 8.51292 5.8967C8.6315 5.84008 8.72043 5.58317 8.72043 5.58317C8.72577 5.4873 8.67102 5.49451 8.63631 5.51427C8.59091 5.54204 8.58797 5.55139 8.54257 5.57917C8.48462 5.58771 8.37245 5.6259 8.3169 5.53991C8.26029 5.43656 8.25975 5.29234 8.21649 5.18792C8.21649 5.18045 8.14065 5.02395 8.21088 5.0138C8.24613 5.02048 8.32225 5.03997 8.33426 4.97641C8.37138 4.91446 8.25415 4.739 8.17456 4.65034C8.10539 4.57449 8.00979 4.56514 7.91738 4.64259C7.85249 4.70215 7.8621 4.76864 7.84955 4.83194C7.83299 4.90431 7.8362 4.99431 7.90991 5.09018C7.97454 5.21757 8.09204 5.38127 8.05332 5.61228C8.05332 5.61228 7.98495 5.72231 7.86504 5.70789C7.8151 5.69694 7.73338 5.67531 7.69012 5.3551C7.65727 5.11261 7.6984 4.77318 7.59558 4.61402C7.57235 4.55393 7.55232 4.49571 7.5192 4.50025C7.49917 4.50292 7.47487 4.52856 7.44069 4.59025C7.41638 4.65461 7.31143 4.75235 7.38727 4.95371C7.44923 5.08137 7.4746 5.28861 7.44656 5.51988C7.40356 5.58557 7.39395 5.60827 7.3376 5.6737C7.25855 5.75863 7.17283 5.737 7.10713 5.70522C7.04571 5.66382 6.99737 5.64246 6.96933 5.51107C6.9744 5.30142 6.98669 4.95852 6.94823 4.88561C6.89188 4.77292 6.79868 4.81324 6.75889 4.84742C6.56767 5.02208 6.4734 5.31718 6.41572 5.55219C6.36284 5.72338 6.30622 5.6737 6.2667 5.6048C6.17002 5.51427 6.16335 4.80683 6.04664 4.923C5.85943 5.45712 6.1532 6.04171 6.3567 5.98483Z" fill="#F0F0F0"/>
<path d="M7.18392 4.97553C7.2563 4.78031 7.25656 4.69699 7.26137 4.6142C7.25015 4.55118 7.22265 4.52073 7.19167 4.5234C7.16069 4.52607 7.12597 4.56239 7.09793 4.63236C7.0739 4.68551 7.04425 4.96405 7.04933 4.96405C7.02983 5.04684 7.13559 5.08209 7.18392 4.97553ZM6.42842 4.92987C6.44623 4.91881 6.46155 4.90418 6.47341 4.88689C6.48527 4.86961 6.49341 4.85005 6.49732 4.82945C6.51441 4.74426 6.40758 4.86978 6.39396 4.77497C6.3702 4.68684 6.4383 4.65079 6.50292 4.5656C6.50426 4.52554 6.50506 4.49269 6.47916 4.49189C6.46741 4.49162 6.44951 4.49803 6.42468 4.51299C6.36886 4.55038 6.25777 4.66601 6.25456 4.79874C6.25109 4.87378 6.23693 4.87352 6.28607 4.92105C6.32159 4.97233 6.35684 4.96725 6.42842 4.92987Z" fill="#F0F0F0"/>
</svg>
